<svg xmlns="http://www.w3.org/2000/svg" width="1320" height="1910">
 <!-- Created with Image Occlusion Enhanced -->
 <g>
  <title>Labels</title>
 </g>
 <g>
  <title>Masks</title>
  <rect id="08638bac2791442db391a7ad0098211c-ao-1" height="30" width="193" y="319" x="323" stroke="#2D2D2D" fill="#FFEBA2"/>
  <rect id="08638bac2791442db391a7ad0098211c-ao-2" height="29" width="119" y="387" x="404" stroke="#2D2D2D" fill="#FFEBA2"/>
  <rect id="08638bac2791442db391a7ad0098211c-ao-3" height="36" width="220" y="250" x="296" stroke="#2D2D2D" fill="#FFEBA2"/>
  <rect id="08638bac2791442db391a7ad0098211c-ao-4" height="33" width="147" y="456" x="369" stroke="#2D2D2D" fill="#FFEBA2"/>
  <rect id="08638bac2791442db391a7ad0098211c-ao-5" height="28" width="238" y="527" x="279" stroke="#2D2D2D" fill="#FFEBA2"/>
  <rect id="08638bac2791442db391a7ad0098211c-ao-6" height="32" width="167" y="596" x="350" stroke="#2D2D2D" fill="#FFEBA2"/>
  <rect id="08638bac2791442db391a7ad0098211c-ao-7" height="31" width="148" y="698" x="273" stroke="#2D2D2D" fill="#FFEBA2"/>
  <rect id="08638bac2791442db391a7ad0098211c-ao-8" height="33" width="106" y="803" x="313" stroke="#2D2D2D" fill="#FFEBA2"/>
  <rect id="08638bac2791442db391a7ad0098211c-ao-9" height="29" width="64" y="908" x="354" stroke="#2D2D2D" fill="#FFEBA2"/>
  <rect id="08638bac2791442db391a7ad0098211c-ao-10" height="30" width="120" y="805" x="130" stroke="#2D2D2D" fill="#FFEBA2"/>
  <rect id="08638bac2791442db391a7ad0098211c-ao-11" height="31" width="169" y="1029" x="254" stroke="#2D2D2D" fill="#FFEBA2"/>
  <rect id="08638bac2791442db391a7ad0098211c-ao-12" height="35" width="192" y="1136" x="228" stroke="#2D2D2D" fill="#FFEBA2"/>
  <rect id="08638bac2791442db391a7ad0098211c-ao-13" height="35" width="189" y="1233" x="233" stroke="#2D2D2D" fill="#FFEBA2"/>
  <rect id="08638bac2791442db391a7ad0098211c-ao-14" height="28" width="251" y="1335" x="175" stroke="#2D2D2D" fill="#FF7E7E" class="qshape"/>
  <rect id="08638bac2791442db391a7ad0098211c-ao-15" height="28" width="100" y="1427" x="321" stroke="#2D2D2D" fill="#FFEBA2"/>
  <rect id="08638bac2791442db391a7ad0098211c-ao-16" height="29" width="201" y="240" x="880" stroke="#2D2D2D" fill="#FFEBA2"/>
  <rect id="08638bac2791442db391a7ad0098211c-ao-17" height="33" width="164" y="299" x="881" stroke="#2D2D2D" fill="#FFEBA2"/>
  <rect id="08638bac2791442db391a7ad0098211c-ao-18" height="31" width="201" y="360" x="882" stroke="#2D2D2D" fill="#FFEBA2"/>
  <rect id="08638bac2791442db391a7ad0098211c-ao-19" height="35" width="175" y="415" x="880" stroke="#2D2D2D" fill="#FFEBA2"/>
  <rect id="08638bac2791442db391a7ad0098211c-ao-20" height="32" width="152" y="475" x="880" stroke="#2D2D2D" fill="#FFEBA2"/>
  <rect id="08638bac2791442db391a7ad0098211c-ao-21" height="36" width="197" y="536" x="878" stroke="#2D2D2D" fill="#FFEBA2"/>
  <rect id="08638bac2791442db391a7ad0098211c-ao-22" height="36" width="101" y="594" x="881" stroke="#2D2D2D" fill="#FFEBA2"/>
  <rect id="08638bac2791442db391a7ad0098211c-ao-23" height="33" width="137" y="657" x="996" stroke="#2D2D2D" fill="#FFEBA2"/>
  <rect id="08638bac2791442db391a7ad0098211c-ao-24" height="28" width="146" y="718" x="995" stroke="#2D2D2D" fill="#FFEBA2"/>
  <rect id="08638bac2791442db391a7ad0098211c-ao-25" height="26" width="194" y="778" x="996" stroke="#2D2D2D" fill="#FFEBA2"/>
  <rect id="08638bac2791442db391a7ad0098211c-ao-26" height="29" width="215" y="837" x="999" stroke="#2D2D2D" fill="#FFEBA2"/>
  <rect id="08638bac2791442db391a7ad0098211c-ao-27" height="35" width="123" y="946" x="996" stroke="#2D2D2D" fill="#FFEBA2"/>
  <rect id="08638bac2791442db391a7ad0098211c-ao-28" height="32" width="162" y="1001" x="996" stroke="#2D2D2D" fill="#FFEBA2"/>
  <rect id="08638bac2791442db391a7ad0098211c-ao-29" height="31" width="252" y="1057" x="994" stroke="#2D2D2D" fill="#FFEBA2"/>
  <rect id="08638bac2791442db391a7ad0098211c-ao-30" height="27" width="146" y="1117" x="999" stroke="#2D2D2D" fill="#FFEBA2"/>
  <rect id="08638bac2791442db391a7ad0098211c-ao-31" height="34" width="226" y="1172" x="998" stroke="#2D2D2D" fill="#FFEBA2"/>
  <rect id="08638bac2791442db391a7ad0098211c-ao-32" height="30" width="288" y="1233" x="995" stroke="#2D2D2D" fill="#FFEBA2"/>
 </g>
</svg>