<svg xmlns="http://www.w3.org/2000/svg" width="1330" height="1912">
 <!-- Created with Image Occlusion Enhanced -->
 <g>
  <title>Labels</title>
 </g>
 <g>
  <title>Masks</title>
  <rect id="1304e37f2e9e449f82f7d20b94f32bbe-ao-1" height="30" width="220" y="307" x="198" stroke="#2D2D2D" fill="#FFEBA2"/>
  <rect id="1304e37f2e9e449f82f7d20b94f32bbe-ao-2" height="32" width="135" y="364" x="284" stroke="#2D2D2D" fill="#FFEBA2"/>
  <rect id="1304e37f2e9e449f82f7d20b94f32bbe-ao-3" height="24" width="191" y="425" x="227" stroke="#2D2D2D" fill="#FFEBA2"/>
  <rect id="1304e37f2e9e449f82f7d20b94f32bbe-ao-4" height="27" width="253" y="482" x="169" stroke="#2D2D2D" fill="#FFEBA2"/>
  <rect id="1304e37f2e9e449f82f7d20b94f32bbe-ao-5" height="32" width="97" y="539" x="279" stroke="#2D2D2D" fill="#FFEBA2"/>
  <rect id="1304e37f2e9e449f82f7d20b94f32bbe-ao-6" height="35" width="75" y="592" x="202" stroke="#2D2D2D" fill="#FFEBA2"/>
  <rect id="1304e37f2e9e449f82f7d20b94f32bbe-ao-7" height="37" width="107" y="648" x="89" stroke="#2D2D2D" fill="#FFEBA2"/>
  <rect id="1304e37f2e9e449f82f7d20b94f32bbe-ao-8" height="37" width="132" y="735" x="22" stroke="#2D2D2D" fill="#FFEBA2"/>
  <rect id="1304e37f2e9e449f82f7d20b94f32bbe-ao-9" height="32" width="104" y="820" x="48" stroke="#2D2D2D" fill="#FFEBA2"/>
  <rect id="1304e37f2e9e449f82f7d20b94f32bbe-ao-10" height="28" width="99" y="909" x="53" stroke="#2D2D2D" fill="#FFEBA2"/>
  <rect id="1304e37f2e9e449f82f7d20b94f32bbe-ao-11" height="34" width="133" y="990" x="23" stroke="#2D2D2D" fill="#FFEBA2"/>
  <rect id="1304e37f2e9e449f82f7d20b94f32bbe-ao-12" height="31" width="153" y="1149" x="159" stroke="#2D2D2D" fill="#FFEBA2"/>
  <rect id="1304e37f2e9e449f82f7d20b94f32bbe-ao-13" height="30" width="159" y="1216" x="151" stroke="#2D2D2D" fill="#FFEBA2"/>
  <rect id="1304e37f2e9e449f82f7d20b94f32bbe-ao-14" height="34" width="197" y="1282" x="113" stroke="#2D2D2D" fill="#FFEBA2"/>
  <rect id="1304e37f2e9e449f82f7d20b94f32bbe-ao-15" height="57" width="259" y="1352" x="53" stroke="#2D2D2D" fill="#FFEBA2"/>
  <rect id="1304e37f2e9e449f82f7d20b94f32bbe-ao-16" height="33" width="106" y="1451" x="205" stroke="#2D2D2D" fill="#FFEBA2"/>
  <rect id="1304e37f2e9e449f82f7d20b94f32bbe-ao-17" height="51" width="257" y="1528" x="57" stroke="#2D2D2D" fill="#FFEBA2"/>
  <rect id="1304e37f2e9e449f82f7d20b94f32bbe-ao-18" height="40" width="160" y="307" x="873" stroke="#2D2D2D" fill="#FFEBA2"/>
  <rect id="1304e37f2e9e449f82f7d20b94f32bbe-ao-19" height="36" width="111" y="367" x="873" stroke="#2D2D2D" fill="#FFEBA2"/>
  <rect id="1304e37f2e9e449f82f7d20b94f32bbe-ao-20" height="38" width="139" y="422" x="875" stroke="#2D2D2D" fill="#FFEBA2"/>
  <rect id="1304e37f2e9e449f82f7d20b94f32bbe-ao-21" height="36" width="100" y="483" x="876" stroke="#2D2D2D" fill="#FFEBA2"/>
  <rect id="1304e37f2e9e449f82f7d20b94f32bbe-ao-22" height="38" width="113" y="537" x="878" stroke="#2D2D2D" fill="#FFEBA2"/>
  <rect id="1304e37f2e9e449f82f7d20b94f32bbe-ao-23" height="27" width="153" y="600" x="876" stroke="#2D2D2D" fill="#FFEBA2"/>
  <rect id="1304e37f2e9e449f82f7d20b94f32bbe-ao-24" height="41" width="113" y="647" x="1095" stroke="#2D2D2D" fill="#FFEBA2"/>
  <rect id="1304e37f2e9e449f82f7d20b94f32bbe-ao-25" height="58" width="87" y="737" x="1093" stroke="#2D2D2D" fill="#FFEBA2"/>
  <rect id="1304e37f2e9e449f82f7d20b94f32bbe-ao-26" height="55" width="118" y="843" x="1097" stroke="#2D2D2D" fill="#FFEBA2"/>
  <rect id="1304e37f2e9e449f82f7d20b94f32bbe-ao-27" height="77" width="130" y="947" x="1093" stroke="#2D2D2D" fill="#FFEBA2"/>
  <rect id="1304e37f2e9e449f82f7d20b94f32bbe-ao-28" height="52" width="115" y="1062" x="1097" stroke="#2D2D2D" fill="#FF7E7E" class="qshape"/>
  <rect id="1304e37f2e9e449f82f7d20b94f32bbe-ao-29" height="37" width="174" y="1186" x="958" stroke="#2D2D2D" fill="#FFEBA2"/>
  <rect id="1304e37f2e9e449f82f7d20b94f32bbe-ao-30" height="32" width="138" y="1242" x="959" stroke="#2D2D2D" fill="#FFEBA2"/>
  <rect id="1304e37f2e9e449f82f7d20b94f32bbe-ao-31" height="33" width="165" y="1297" x="963" stroke="#2D2D2D" fill="#FFEBA2"/>
  <rect id="1304e37f2e9e449f82f7d20b94f32bbe-ao-32" height="34" width="180" y="1353" x="967" stroke="#2D2D2D" fill="#FFEBA2"/>
  <rect id="1304e37f2e9e449f82f7d20b94f32bbe-ao-33" height="31" width="117" y="1412" x="964" stroke="#2D2D2D" fill="#FFEBA2"/>
  <rect id="1304e37f2e9e449f82f7d20b94f32bbe-ao-34" height="30" width="192" y="1468" x="963" stroke="#2D2D2D" fill="#FFEBA2"/>
  <rect id="1304e37f2e9e449f82f7d20b94f32bbe-ao-35" height="29" width="194" y="1524" x="964" stroke="#2D2D2D" fill="#FFEBA2"/>
 </g>
</svg>