<svg xmlns="http://www.w3.org/2000/svg" width="1248" height="1792">
 <!-- Created with Image Occlusion Enhanced -->
 <g>
  <title>Labels</title>
 </g>
 <g>
  <title>Masks</title>
  <rect id="2597293e3b03466a902b7933a4700a0f-ao-1" height="71" width="319" y="346" x="57" stroke="#2D2D2D" fill="#FFEBA2"/>
  <rect id="2597293e3b03466a902b7933a4700a0f-ao-2" height="28" width="123" y="449" x="195" stroke="#2D2D2D" fill="#FFEBA2"/>
  <rect id="2597293e3b03466a902b7933a4700a0f-ao-3" height="51" width="294" y="426" x="911" stroke="#2D2D2D" fill="#FFEBA2"/>
  <rect id="2597293e3b03466a902b7933a4700a0f-ao-4" height="32" width="220" y="502" x="959" stroke="#2D2D2D" fill="#FFEBA2"/>
  <rect id="2597293e3b03466a902b7933a4700a0f-ao-5" height="60" width="108" y="598" x="1063" stroke="#2D2D2D" fill="#FFEBA2"/>
  <rect id="2597293e3b03466a902b7933a4700a0f-ao-6" height="56" width="217" y="1019" x="50" stroke="#2D2D2D" fill="#FFEBA2"/>
  <rect id="2597293e3b03466a902b7933a4700a0f-ao-7" height="32" width="121" y="1109" x="158" stroke="#2D2D2D" fill="#FFEBA2"/>
  <rect id="2597293e3b03466a902b7933a4700a0f-ao-8" height="23" width="235" y="1176" x="59" stroke="#2D2D2D" fill="#FFEBA2"/>
  <rect id="2597293e3b03466a902b7933a4700a0f-ao-9" height="74" width="224" y="1244" x="83" stroke="#2D2D2D" fill="#FFEBA2"/>
  <rect id="2597293e3b03466a902b7933a4700a0f-ao-10" height="28" width="188" y="1360" x="139" stroke="#2D2D2D" fill="#FFEBA2"/>
  <rect id="2597293e3b03466a902b7933a4700a0f-ao-11" height="30" width="297" y="1452" x="142" stroke="#2D2D2D" fill="#FFEBA2"/>
  <rect id="2597293e3b03466a902b7933a4700a0f-ao-12" height="32" width="231" y="1517" x="317" stroke="#2D2D2D" fill="#FFEBA2"/>
  <rect id="2597293e3b03466a902b7933a4700a0f-ao-13" height="26" width="125" y="1587" x="538" stroke="#2D2D2D" fill="#FFEBA2"/>
  <rect id="2597293e3b03466a902b7933a4700a0f-ao-14" height="43" width="505" y="1568" x="716" stroke="#2D2D2D" fill="#FFEBA2"/>
  <rect id="2597293e3b03466a902b7933a4700a0f-ao-15" height="27" width="142" y="1520" x="826" stroke="#2D2D2D" fill="#FFEBA2"/>
  <rect id="2597293e3b03466a902b7933a4700a0f-ao-16" height="28" width="183" y="1469" x="894" stroke="#2D2D2D" fill="#FFEBA2"/>
  <rect id="2597293e3b03466a902b7933a4700a0f-ao-17" height="49" width="227" y="1393" x="948" stroke="#2D2D2D" fill="#FFEBA2"/>
  <rect id="2597293e3b03466a902b7933a4700a0f-ao-18" height="29" width="219" y="1325" x="973" stroke="#2D2D2D" fill="#FFEBA2"/>
  <rect id="2597293e3b03466a902b7933a4700a0f-ao-19" height="58" width="261" y="1237" x="986" stroke="#2D2D2D" fill="#FFEBA2"/>
  <rect id="2597293e3b03466a902b7933a4700a0f-ao-20" height="26" width="241" y="1169" x="999" stroke="#2D2D2D" fill="#FFEBA2"/>
  
 </g>
</svg>