<svg xmlns="http://www.w3.org/2000/svg" width="1354" height="1900">
 <!-- Created with Image Occlusion Enhanced -->
 <g>
  <title>Labels</title>
 </g>
 <g>
  <title>Masks</title>
  <rect id="262f8814d3a244a283f877475dd1ee8b-ao-1" height="30" width="171" y="288" x="197" stroke="#2D2D2D" fill="#FFEBA2"/>
  <rect id="262f8814d3a244a283f877475dd1ee8b-ao-2" height="22" width="34" y="259" x="398" stroke="#2D2D2D" fill="#FFEBA2"/>
  <rect id="262f8814d3a244a283f877475dd1ee8b-ao-3" height="22" width="35" y="293" x="397" stroke="#2D2D2D" fill="#FFEBA2"/>
  <rect id="262f8814d3a244a283f877475dd1ee8b-ao-4" height="25" width="37" y="327" x="397" stroke="#2D2D2D" fill="#FFEBA2"/>
  <rect id="262f8814d3a244a283f877475dd1ee8b-ao-5" height="30" width="198" y="378" x="209" stroke="#2D2D2D" fill="#FFEBA2"/>
  <rect id="262f8814d3a244a283f877475dd1ee8b-ao-6" height="30" width="302" y="421" x="85" stroke="#2D2D2D" fill="#FFEBA2"/>
  <rect id="262f8814d3a244a283f877475dd1ee8b-ao-7" height="26" width="172" y="464" x="190" stroke="#2D2D2D" fill="#FFEBA2"/>
  <rect id="262f8814d3a244a283f877475dd1ee8b-ao-8" height="26" width="226" y="508" x="119" stroke="#2D2D2D" fill="#FFEBA2"/>
  <rect id="262f8814d3a244a283f877475dd1ee8b-ao-9" height="26" width="272" y="549" x="58" stroke="#2D2D2D" fill="#FFEBA2"/>
  <rect id="262f8814d3a244a283f877475dd1ee8b-ao-10" height="31" width="305" y="589" x="8" stroke="#2D2D2D" fill="#FFEBA2"/>
  <rect id="262f8814d3a244a283f877475dd1ee8b-ao-11" height="53" width="178" y="633" x="108" stroke="#2D2D2D" fill="#FFEBA2"/>
  <rect id="262f8814d3a244a283f877475dd1ee8b-ao-12" height="37" width="196" y="692" x="60" stroke="#2D2D2D" fill="#FFEBA2"/>
  <rect id="262f8814d3a244a283f877475dd1ee8b-ao-13" height="76" width="199" y="736" x="44" stroke="#2D2D2D" fill="#FFEBA2"/>
  <rect id="262f8814d3a244a283f877475dd1ee8b-ao-14" height="33" width="204" y="823" x="21" stroke="#2D2D2D" fill="#FFEBA2"/>
  <rect id="262f8814d3a244a283f877475dd1ee8b-ao-15" height="29" width="175" y="868" x="49" stroke="#2D2D2D" fill="#FFEBA2"/>
  <rect id="262f8814d3a244a283f877475dd1ee8b-ao-16" height="79" width="165" y="909" x="57" stroke="#2D2D2D" fill="#FFEBA2"/>
  <rect id="262f8814d3a244a283f877475dd1ee8b-ao-17" height="48" width="115" y="996" x="108" stroke="#2D2D2D" fill="#FFEBA2"/>
  <rect id="262f8814d3a244a283f877475dd1ee8b-ao-18" height="49" width="184" y="1055" x="39" stroke="#2D2D2D" fill="#FFEBA2"/>
  <rect id="262f8814d3a244a283f877475dd1ee8b-ao-19" height="72" width="298" y="1134" x="524" stroke="#2D2D2D" fill="#FFEBA2"/>
  <rect id="262f8814d3a244a283f877475dd1ee8b-ao-20" height="28" width="35" y="255" x="870" stroke="#2D2D2D" fill="#FFEBA2"/>
  <rect id="262f8814d3a244a283f877475dd1ee8b-ao-21" height="21" width="31" y="296" x="873" stroke="#2D2D2D" fill="#FFEBA2"/>
  <rect id="262f8814d3a244a283f877475dd1ee8b-ao-22" height="25" width="30" y="327" x="873" stroke="#2D2D2D" fill="#FFEBA2"/>
  <rect id="262f8814d3a244a283f877475dd1ee8b-ao-23" height="28" width="174" y="294" x="937" stroke="#2D2D2D" fill="#FFEBA2"/>
  <rect id="262f8814d3a244a283f877475dd1ee8b-ao-24" height="28" width="198" y="384" x="896" stroke="#2D2D2D" fill="#FFEBA2"/>
  <rect id="262f8814d3a244a283f877475dd1ee8b-ao-25" height="26" width="178" y="429" x="918" stroke="#2D2D2D" fill="#FFEBA2"/>
  <rect id="262f8814d3a244a283f877475dd1ee8b-ao-26" height="27" width="220" y="468" x="943" stroke="#2D2D2D" fill="#FFEBA2"/>
  <rect id="262f8814d3a244a283f877475dd1ee8b-ao-27" height="27" width="263" y="515" x="965" stroke="#2D2D2D" fill="#FF7E7E" class="qshape"/>
  <rect id="262f8814d3a244a283f877475dd1ee8b-ao-28" height="32" width="294" y="553" x="983" stroke="#2D2D2D" fill="#FFEBA2"/>
  <rect id="262f8814d3a244a283f877475dd1ee8b-ao-29" height="29" width="295" y="597" x="1004" stroke="#2D2D2D" fill="#FFEBA2"/>
  <rect id="262f8814d3a244a283f877475dd1ee8b-ao-30" height="52" width="182" y="644" x="1025" stroke="#2D2D2D" fill="#FFEBA2"/>
  <rect id="262f8814d3a244a283f877475dd1ee8b-ao-31" height="32" width="248" y="710" x="1043" stroke="#2D2D2D" fill="#FFEBA2"/>
  <rect id="262f8814d3a244a283f877475dd1ee8b-ao-32" height="42" width="258" y="759" x="1067" stroke="#2D2D2D" fill="#FFEBA2"/>
  <rect id="262f8814d3a244a283f877475dd1ee8b-ao-33" height="57" width="237" y="823" x="1081" stroke="#2D2D2D" fill="#FFEBA2"/>
  <rect id="262f8814d3a244a283f877475dd1ee8b-ao-34" height="28" width="173" y="899" x="1096" stroke="#2D2D2D" fill="#FFEBA2"/>
  <rect id="262f8814d3a244a283f877475dd1ee8b-ao-35" height="29" width="217" y="949" x="1112" stroke="#2D2D2D" fill="#FFEBA2"/>
  <rect id="262f8814d3a244a283f877475dd1ee8b-ao-36" height="30" width="169" y="998" x="1127" stroke="#2D2D2D" fill="#FFEBA2"/>
  <rect id="262f8814d3a244a283f877475dd1ee8b-ao-37" height="52" width="223" y="1372" x="107" stroke="#2D2D2D" fill="#FFEBA2"/>
  <rect id="262f8814d3a244a283f877475dd1ee8b-ao-38" height="80" width="302" y="1586" x="27" stroke="#2D2D2D" fill="#FFEBA2"/>
 </g>
</svg>