<svg xmlns="http://www.w3.org/2000/svg" width="1342" height="1894">
 <!-- Created with Image Occlusion Enhanced -->
 <g>
  <title>Labels</title>
 </g>
 <g>
  <title>Masks</title>
  <rect id="281379ff992a4eb7a74f013f69655045-ao-1" height="30" width="312" y="272" x="307" stroke="#2D2D2D" fill="#FFEBA2"/>
  <rect id="281379ff992a4eb7a74f013f69655045-ao-2" height="30" width="52" y="332" x="512" stroke="#2D2D2D" fill="#FFEBA2"/>
  <rect id="281379ff992a4eb7a74f013f69655045-ao-3" height="48" width="218" y="390" x="299" stroke="#2D2D2D" fill="#FFEBA2"/>
  <rect id="281379ff992a4eb7a74f013f69655045-ao-4" height="24" width="149" y="464" x="325" stroke="#2D2D2D" fill="#FFEBA2"/>
  <rect id="281379ff992a4eb7a74f013f69655045-ao-5" height="22" width="139" y="512" x="294" stroke="#2D2D2D" fill="#FFEBA2"/>
  <rect id="281379ff992a4eb7a74f013f69655045-ao-6" height="23" width="110" y="561" x="296" stroke="#2D2D2D" fill="#FFEBA2"/>
  <rect id="281379ff992a4eb7a74f013f69655045-ao-7" height="65" width="213" y="599" x="133" stroke="#2D2D2D" fill="#FFEBA2"/>
  <rect id="281379ff992a4eb7a74f013f69655045-ao-8" height="27" width="118" y="676" x="91" stroke="#2D2D2D" fill="#FFEBA2"/>
  <rect id="281379ff992a4eb7a74f013f69655045-ao-9" height="44" width="124" y="1085" x="110" stroke="#2D2D2D" fill="#FFEBA2"/>
  <rect id="281379ff992a4eb7a74f013f69655045-ao-10" height="32" width="195" y="1154" x="74" stroke="#2D2D2D" fill="#FFEBA2"/>
  <rect id="281379ff992a4eb7a74f013f69655045-ao-11" height="32" width="155" y="1210" x="177" stroke="#2D2D2D" fill="#FFEBA2"/>
  <rect id="281379ff992a4eb7a74f013f69655045-ao-12" height="56" width="341" y="1266" x="87" stroke="#2D2D2D" fill="#FFEBA2"/>
  <rect id="281379ff992a4eb7a74f013f69655045-ao-13" height="26" width="160" y="1336" x="337" stroke="#2D2D2D" fill="#FFEBA2"/>
  
  <rect id="281379ff992a4eb7a74f013f69655045-ao-15" height="31" width="189" y="1443" x="438" stroke="#2D2D2D" fill="#FFEBA2"/>
  <rect id="281379ff992a4eb7a74f013f69655045-ao-16" height="29" width="537" y="1599" x="667" stroke="#2D2D2D" fill="#FFEBA2"/>
  <rect id="281379ff992a4eb7a74f013f69655045-ao-17" height="31" width="298" y="1536" x="759" stroke="#2D2D2D" fill="#FFEBA2"/>
  <rect id="281379ff992a4eb7a74f013f69655045-ao-18" height="29" width="291" y="1474" x="838" stroke="#2D2D2D" fill="#FFEBA2"/>
  <rect id="281379ff992a4eb7a74f013f69655045-ao-19" height="30" width="123" y="1412" x="913" stroke="#2D2D2D" fill="#FFEBA2"/>
  <rect id="281379ff992a4eb7a74f013f69655045-ao-20" height="30" width="187" y="1350" x="992" stroke="#2D2D2D" fill="#FFEBA2"/>
  <rect id="281379ff992a4eb7a74f013f69655045-ao-21" height="29" width="203" y="1289" x="1071" stroke="#2D2D2D" fill="#FFEBA2"/>
  <rect id="281379ff992a4eb7a74f013f69655045-ao-22" height="26" width="103" y="1227" x="1188" stroke="#2D2D2D" fill="#FFEBA2"/>
  <rect id="281379ff992a4eb7a74f013f69655045-ao-23" height="49" width="124" y="1137" x="1187" stroke="#2D2D2D" fill="#FFEBA2"/>
  <rect id="281379ff992a4eb7a74f013f69655045-ao-24" height="31" width="129" y="1064" x="1183" stroke="#2D2D2D" fill="#FFEBA2"/>
  <rect id="281379ff992a4eb7a74f013f69655045-ao-25" height="55" width="137" y="933" x="1187" stroke="#2D2D2D" fill="#FFEBA2"/>
  <rect id="281379ff992a4eb7a74f013f69655045-ao-26" height="51" width="128" y="862" x="1185" stroke="#2D2D2D" fill="#FFEBA2"/>
  <rect id="281379ff992a4eb7a74f013f69655045-ao-27" height="52" width="113" y="782" x="1189" stroke="#2D2D2D" fill="#FFEBA2"/>
  <rect id="281379ff992a4eb7a74f013f69655045-ao-28" height="49" width="125" y="709" x="1184" stroke="#2D2D2D" fill="#FFEBA2"/>
  <rect id="281379ff992a4eb7a74f013f69655045-ao-29" height="29" width="213" y="646" x="1099" stroke="#2D2D2D" fill="#FFEBA2"/>
  <rect id="281379ff992a4eb7a74f013f69655045-ao-30" height="26" width="148" y="586" x="955" stroke="#2D2D2D" fill="#FFEBA2"/>
  <rect id="281379ff992a4eb7a74f013f69655045-ao-31" height="52" width="254" y="506" x="917" stroke="#2D2D2D" fill="#FFEBA2"/>
  <rect id="281379ff992a4eb7a74f013f69655045-ao-32" height="25" width="131" y="457" x="836" stroke="#2D2D2D" fill="#FFEBA2"/>
  <rect id="281379ff992a4eb7a74f013f69655045-ao-33" height="27" width="216" y="399" x="778" stroke="#2D2D2D" fill="#FFEBA2"/>
  <rect id="281379ff992a4eb7a74f013f69655045-ao-34" height="27" width="200" y="275" x="654" stroke="#2D2D2D" fill="#FFEBA2"/>
  <rect id="281379ff992a4eb7a74f013f69655045-ao-35" height="25" width="43" y="341" x="721" stroke="#2D2D2D" fill="#FFEBA2"/>
 </g>
</svg>