<svg xmlns="http://www.w3.org/2000/svg" width="1320" height="1884">
 <!-- Created with Image Occlusion Enhanced -->
 <g>
  <title>Labels</title>
 </g>
 <g>
  <title>Masks</title>
  <rect id="3b03dc6b2f0044339b371e96b061c328-ao-1" height="39" width="225" y="243" x="215" stroke="#2D2D2D" fill="#FFEBA2"/>
  <rect id="3b03dc6b2f0044339b371e96b061c328-ao-2" height="29" width="111" y="317" x="326" stroke="#2D2D2D" fill="#FFEBA2"/>
  <rect id="3b03dc6b2f0044339b371e96b061c328-ao-3" height="29" width="186" y="387" x="251" stroke="#2D2D2D" fill="#FFEBA2"/>
  <rect id="3b03dc6b2f0044339b371e96b061c328-ao-4" height="29" width="217" y="456" x="224" stroke="#2D2D2D" fill="#FFEBA2"/>
  <rect id="3b03dc6b2f0044339b371e96b061c328-ao-5" height="29" width="147" y="523" x="291" stroke="#2D2D2D" fill="#FFEBA2"/>
  <rect id="3b03dc6b2f0044339b371e96b061c328-ao-6" height="32" width="141" y="588" x="304" stroke="#2D2D2D" fill="#FFEBA2"/>
  <rect id="3b03dc6b2f0044339b371e96b061c328-ao-7" height="32" width="233" y="676" x="142" stroke="#2D2D2D" fill="#FFEBA2"/>
  
  <rect id="3b03dc6b2f0044339b371e96b061c328-ao-9" height="28" width="142" y="905" x="229" stroke="#2D2D2D" fill="#FFEBA2"/>
  <rect id="3b03dc6b2f0044339b371e96b061c328-ao-10" height="29" width="303" y="1023" x="66" stroke="#2D2D2D" fill="#FFEBA2"/>
  <rect id="3b03dc6b2f0044339b371e96b061c328-ao-11" height="28" width="333" y="1141" x="39" stroke="#2D2D2D" fill="#FFEBA2"/>
  <rect id="3b03dc6b2f0044339b371e96b061c328-ao-12" height="26" width="226" y="1255" x="152" stroke="#2D2D2D" fill="#FFEBA2"/>
  <rect id="3b03dc6b2f0044339b371e96b061c328-ao-13" height="27" width="144" y="1369" x="228" stroke="#2D2D2D" fill="#FFEBA2"/>
  <rect id="3b03dc6b2f0044339b371e96b061c328-ao-14" height="25" width="163" y="1484" x="208" stroke="#2D2D2D" fill="#FFEBA2"/>
  <rect id="3b03dc6b2f0044339b371e96b061c328-ao-15" height="32" width="206" y="241" x="862" stroke="#2D2D2D" fill="#FFEBA2"/>
  <rect id="3b03dc6b2f0044339b371e96b061c328-ao-16" height="31" width="172" y="292" x="864" stroke="#2D2D2D" fill="#FFEBA2"/>
  <rect id="3b03dc6b2f0044339b371e96b061c328-ao-17" height="31" width="206" y="342" x="867" stroke="#2D2D2D" fill="#FFEBA2"/>
  <rect id="3b03dc6b2f0044339b371e96b061c328-ao-18" height="30" width="246" y="391" x="863" stroke="#2D2D2D" fill="#FFEBA2"/>
  <rect id="3b03dc6b2f0044339b371e96b061c328-ao-19" height="27" width="174" y="444" x="862" stroke="#2D2D2D" fill="#FFEBA2"/>
  <rect id="3b03dc6b2f0044339b371e96b061c328-ao-20" height="27" width="45" y="493" x="861" stroke="#2D2D2D" fill="#FFEBA2"/>
  <rect id="3b03dc6b2f0044339b371e96b061c328-ao-21" height="32" width="66" y="528" x="861" stroke="#2D2D2D" fill="#FFEBA2"/>
  <rect id="3b03dc6b2f0044339b371e96b061c328-ao-22" height="31" width="156" y="509" x="941" stroke="#2D2D2D" fill="#FFEBA2"/>
  <rect id="3b03dc6b2f0044339b371e96b061c328-ao-23" height="32" width="152" y="587" x="862" stroke="#2D2D2D" fill="#FFEBA2"/>
  <rect id="3b03dc6b2f0044339b371e96b061c328-ao-24" height="27" width="142" y="658" x="937" stroke="#2D2D2D" fill="#FFEBA2"/>
  <rect id="3b03dc6b2f0044339b371e96b061c328-ao-25" height="25" width="47" y="734" x="937" stroke="#2D2D2D" fill="#FFEBA2"/>
  <rect id="3b03dc6b2f0044339b371e96b061c328-ao-26" height="26" width="56" y="766" x="940" stroke="#2D2D2D" fill="#FFEBA2"/>
  <rect id="3b03dc6b2f0044339b371e96b061c328-ao-27" height="49" width="120" y="740" x="1019" stroke="#2D2D2D" fill="#FFEBA2"/>
  <rect id="3b03dc6b2f0044339b371e96b061c328-ao-28" height="29" width="58" y="853" x="940" stroke="#2D2D2D" fill="#FFEBA2"/>
  <rect id="3b03dc6b2f0044339b371e96b061c328-ao-29" height="24" width="49" y="892" x="938" stroke="#2D2D2D" fill="#FFEBA2"/>
  <rect id="3b03dc6b2f0044339b371e96b061c328-ao-30" height="28" width="178" y="871" x="1017" stroke="#2D2D2D" fill="#FFEBA2"/>
  <rect id="3b03dc6b2f0044339b371e96b061c328-ao-31" height="28" width="107" y="1366" x="942" stroke="#2D2D2D" fill="#FFEBA2"/>
  <rect id="3b03dc6b2f0044339b371e96b061c328-ao-32" height="28" width="196" y="1451" x="939" stroke="#2D2D2D" fill="#FFEBA2"/>
  <rect id="3b03dc6b2f0044339b371e96b061c328-ao-33" height="26" width="188" y="1281" x="940" stroke="#2D2D2D" fill="#FFEBA2"/>
  <rect id="3b03dc6b2f0044339b371e96b061c328-ao-34" height="27" width="190" y="1196" x="938" stroke="#2D2D2D" fill="#FFEBA2"/>
  <rect id="3b03dc6b2f0044339b371e96b061c328-ao-35" height="32" width="202" y="1111" x="939" stroke="#2D2D2D" fill="#FFEBA2"/>
 </g>
</svg>