<svg xmlns="http://www.w3.org/2000/svg" width="1248" height="1782">
 <!-- Created with Image Occlusion Enhanced -->
 <g>
  <title>Labels</title>
 </g>
 <g>
  <title>Masks</title>
  <rect id="6eafd7d20e4241dc804c353a593be3d2-ao-1" height="29" width="212" y="271" x="284" stroke="#2D2D2D" fill="#FFEBA2"/>
  <rect id="6eafd7d20e4241dc804c353a593be3d2-ao-2" height="23" width="181" y="323" x="254" stroke="#2D2D2D" fill="#FFEBA2"/>
  <rect id="6eafd7d20e4241dc804c353a593be3d2-ao-3" height="22" width="321" y="370" x="55" stroke="#2D2D2D" fill="#FFEBA2"/>
  <rect id="6eafd7d20e4241dc804c353a593be3d2-ao-4" height="25" width="151" y="423" x="140" stroke="#2D2D2D" fill="#FFEBA2"/>
  <rect id="6eafd7d20e4241dc804c353a593be3d2-ao-5" height="24" width="243" y="474" x="48" stroke="#2D2D2D" fill="#FFEBA2"/>
  <rect id="6eafd7d20e4241dc804c353a593be3d2-ao-6" height="76" width="213" y="511" x="78" stroke="#2D2D2D" fill="#FFEBA2"/>
  <rect id="6eafd7d20e4241dc804c353a593be3d2-ao-7" height="44" width="243" y="610" x="31" stroke="#2D2D2D" fill="#FFEBA2"/>
  <rect id="6eafd7d20e4241dc804c353a593be3d2-ao-8" height="114" width="153" y="667" x="82" stroke="#2D2D2D" fill="#FFEBA2"/>
  <rect id="6eafd7d20e4241dc804c353a593be3d2-ao-9" height="112" width="206" y="805" x="2" stroke="#2D2D2D" fill="#FFEBA2"/>
  <rect id="6eafd7d20e4241dc804c353a593be3d2-ao-10" height="93" width="148" y="944" x="28" stroke="#2D2D2D" fill="#FFEBA2"/>
  <rect id="6eafd7d20e4241dc804c353a593be3d2-ao-11" height="33" width="140" y="1047" x="37" stroke="#2D2D2D" fill="#FFEBA2"/>
  <rect id="6eafd7d20e4241dc804c353a593be3d2-ao-12" height="49" width="89" y="1108" x="84" stroke="#2D2D2D" fill="#FFEBA2"/>
  <rect id="6eafd7d20e4241dc804c353a593be3d2-ao-13" height="29" width="92" y="1189" x="81" stroke="#2D2D2D" fill="#FFEBA2"/>
  <rect id="6eafd7d20e4241dc804c353a593be3d2-ao-14" height="49" width="169" y="1253" x="7" stroke="#2D2D2D" fill="#FFEBA2"/>
  <rect id="6eafd7d20e4241dc804c353a593be3d2-ao-15" height="23" width="73" y="180" x="654" stroke="#2D2D2D" fill="#FFEBA2"/>
  <rect id="6eafd7d20e4241dc804c353a593be3d2-ao-16" height="30" width="233" y="222" x="704" stroke="#2D2D2D" fill="#FFEBA2"/>
  <rect id="6eafd7d20e4241dc804c353a593be3d2-ao-17" height="26" width="200" y="327" x="825" stroke="#2D2D2D" fill="#FFEBA2"/>
  <rect id="6eafd7d20e4241dc804c353a593be3d2-ao-18" height="30" width="187" y="373" x="858" stroke="#2D2D2D" fill="#FFEBA2"/>
  <rect id="6eafd7d20e4241dc804c353a593be3d2-ao-19" height="39" width="251" y="414" x="922" stroke="#2D2D2D" fill="#FFEBA2"/>
  <rect id="6eafd7d20e4241dc804c353a593be3d2-ao-20" height="28" width="239" y="468" x="942" stroke="#2D2D2D" fill="#FFEBA2"/>
  <rect id="6eafd7d20e4241dc804c353a593be3d2-ao-21" height="50" width="239" y="517" x="955" stroke="#2D2D2D" fill="#FFEBA2"/>
  <rect id="6eafd7d20e4241dc804c353a593be3d2-ao-22" height="91" width="193" y="590" x="970" stroke="#2D2D2D" fill="#FFEBA2"/>
  
  <rect id="6eafd7d20e4241dc804c353a593be3d2-ao-24" height="49" width="159" y="806" x="1044" stroke="#2D2D2D" fill="#FFEBA2"/>
  <rect id="6eafd7d20e4241dc804c353a593be3d2-ao-25" height="28" width="150" y="937" x="1066" stroke="#2D2D2D" fill="#FFEBA2"/>
  <rect id="6eafd7d20e4241dc804c353a593be3d2-ao-26" height="70" width="146" y="1309" x="1070" stroke="#2D2D2D" fill="#FFEBA2"/>
  <rect id="6eafd7d20e4241dc804c353a593be3d2-ao-27" height="31" width="141" y="1432" x="1070" stroke="#2D2D2D" fill="#FFEBA2"/>
  <rect id="6eafd7d20e4241dc804c353a593be3d2-ao-28" height="26" width="385" y="1550" x="710" stroke="#2D2D2D" fill="#FFEBA2"/>
  <rect id="6eafd7d20e4241dc804c353a593be3d2-ao-29" height="28" width="424" y="1597" x="661" stroke="#2D2D2D" fill="#FFEBA2"/>
  <rect id="6eafd7d20e4241dc804c353a593be3d2-ao-30" height="22" width="146" y="1599" x="372" stroke="#2D2D2D" fill="#FFEBA2"/>
  <rect id="6eafd7d20e4241dc804c353a593be3d2-ao-31" height="27" width="268" y="1549" x="180" stroke="#2D2D2D" fill="#FFEBA2"/>
  <rect id="6eafd7d20e4241dc804c353a593be3d2-ao-32" height="29" width="140" y="1411" x="38" stroke="#2D2D2D" fill="#FFEBA2"/>
 </g>
</svg>