<svg xmlns="http://www.w3.org/2000/svg" width="1356" height="1918">
 <!-- Created with Image Occlusion Enhanced -->
 <g>
  <title>Labels</title>
 </g>
 <g>
  <title>Masks</title>
  <rect id="729dc36bcdd0496dad50c7886d1c54ae-ao-1" height="26" width="296" y="173" x="354" stroke="#2D2D2D" fill="#FFEBA2"/>
  <rect id="729dc36bcdd0496dad50c7886d1c54ae-ao-2" height="28" width="398" y="217" x="208" stroke="#2D2D2D" fill="#FFEBA2"/>
  <rect id="729dc36bcdd0496dad50c7886d1c54ae-ao-3" height="25" width="294" y="261" x="273" stroke="#2D2D2D" fill="#FFEBA2"/>
  <rect id="729dc36bcdd0496dad50c7886d1c54ae-ao-4" height="29" width="182" y="305" x="351" stroke="#2D2D2D" fill="#FFEBA2"/>
  <rect id="729dc36bcdd0496dad50c7886d1c54ae-ao-5" height="26" width="234" y="348" x="268" stroke="#2D2D2D" fill="#FFEBA2"/>
  <rect id="729dc36bcdd0496dad50c7886d1c54ae-ao-6" height="29" width="248" y="392" x="219" stroke="#2D2D2D" fill="#FFEBA2"/>
  <rect id="729dc36bcdd0496dad50c7886d1c54ae-ao-7" height="32" width="253" y="432" x="182" stroke="#2D2D2D" fill="#FFEBA2"/>
  <rect id="729dc36bcdd0496dad50c7886d1c54ae-ao-8" height="30" width="297" y="478" x="113" stroke="#2D2D2D" fill="#FFEBA2"/>
  <rect id="729dc36bcdd0496dad50c7886d1c54ae-ao-9" height="51" width="164" y="607" x="72" stroke="#2D2D2D" fill="#FFEBA2"/>
  <rect id="729dc36bcdd0496dad50c7886d1c54ae-ao-10" height="29" width="157" y="1319" x="14" stroke="#2D2D2D" fill="#FFEBA2"/>
  <rect id="729dc36bcdd0496dad50c7886d1c54ae-ao-11" height="35" width="191" y="1541" x="26" stroke="#2D2D2D" fill="#FFEBA2"/>
  <rect id="729dc36bcdd0496dad50c7886d1c54ae-ao-12" height="30" width="167" y="1600" x="146" stroke="#2D2D2D" fill="#FFEBA2"/>
  <rect id="729dc36bcdd0496dad50c7886d1c54ae-ao-13" height="30" width="150" y="1653" x="248" stroke="#2D2D2D" fill="#FFEBA2"/>
  <rect id="729dc36bcdd0496dad50c7886d1c54ae-ao-14" height="31" width="107" y="1712" x="394" stroke="#2D2D2D" fill="#FFEBA2"/>
  <rect id="729dc36bcdd0496dad50c7886d1c54ae-ao-15" height="52" width="150" y="1646" x="596" stroke="#2D2D2D" fill="#FFEBA2"/>
  <rect id="729dc36bcdd0496dad50c7886d1c54ae-ao-16" height="32" width="220" y="1657" x="765" stroke="#2D2D2D" fill="#FFEBA2"/>
  <rect id="729dc36bcdd0496dad50c7886d1c54ae-ao-17" height="27" width="216" y="1625" x="813" stroke="#2D2D2D" fill="#FFEBA2"/>
  <rect id="729dc36bcdd0496dad50c7886d1c54ae-ao-18" height="28" width="238" y="1589" x="850" stroke="#2D2D2D" fill="#FFEBA2"/>
  <rect id="729dc36bcdd0496dad50c7886d1c54ae-ao-19" height="49" width="268" y="1537" x="898" stroke="#2D2D2D" fill="#FFEBA2"/>
  <rect id="729dc36bcdd0496dad50c7886d1c54ae-ao-20" height="20" width="220" y="1502" x="940" stroke="#2D2D2D" fill="#FFEBA2"/>
  
  <rect id="729dc36bcdd0496dad50c7886d1c54ae-ao-22" height="24" width="162" y="1406" x="1010" stroke="#2D2D2D" fill="#FFEBA2"/>
  <rect id="729dc36bcdd0496dad50c7886d1c54ae-ao-23" height="49" width="255" y="1350" x="1059" stroke="#2D2D2D" fill="#FFEBA2"/>
  <rect id="729dc36bcdd0496dad50c7886d1c54ae-ao-24" height="27" width="182" y="153" x="701" stroke="#2D2D2D" fill="#FFEBA2"/>
  <rect id="729dc36bcdd0496dad50c7886d1c54ae-ao-25" height="23" width="378" y="192" x="732" stroke="#2D2D2D" fill="#FFEBA2"/>
  <rect id="729dc36bcdd0496dad50c7886d1c54ae-ao-26" height="23" width="311" y="228" x="764" stroke="#2D2D2D" fill="#FFEBA2"/>
  <rect id="729dc36bcdd0496dad50c7886d1c54ae-ao-27" height="25" width="285" y="265" x="794" stroke="#2D2D2D" fill="#FFEBA2"/>
  <rect id="729dc36bcdd0496dad50c7886d1c54ae-ao-28" height="30" width="136" y="296" x="823" stroke="#2D2D2D" fill="#FFEBA2"/>
  <rect id="729dc36bcdd0496dad50c7886d1c54ae-ao-29" height="45" width="308" y="337" x="847" stroke="#2D2D2D" fill="#FFEBA2"/>
  <rect id="729dc36bcdd0496dad50c7886d1c54ae-ao-30" height="28" width="295" y="392" x="878" stroke="#2D2D2D" fill="#FFEBA2"/>
  <rect id="729dc36bcdd0496dad50c7886d1c54ae-ao-31" height="29" width="323" y="425" x="900" stroke="#2D2D2D" fill="#FFEBA2"/>
  <rect id="729dc36bcdd0496dad50c7886d1c54ae-ao-32" height="24" width="139" y="463" x="920" stroke="#2D2D2D" fill="#FFEBA2"/>
  <rect id="729dc36bcdd0496dad50c7886d1c54ae-ao-33" height="29" width="140" y="495" x="943" stroke="#2D2D2D" fill="#FFEBA2"/>
  <rect id="729dc36bcdd0496dad50c7886d1c54ae-ao-34" height="25" width="324" y="535" x="982" stroke="#2D2D2D" fill="#FFEBA2"/>
  <rect id="729dc36bcdd0496dad50c7886d1c54ae-ao-35" height="27" width="231" y="589" x="1038" stroke="#2D2D2D" fill="#FFEBA2"/>
  <rect id="729dc36bcdd0496dad50c7886d1c54ae-ao-36" height="56" width="120" y="630" x="1119" stroke="#2D2D2D" fill="#FFEBA2"/>
 </g>
</svg>