<svg xmlns="http://www.w3.org/2000/svg" width="1312" height="1882">
 <!-- Created with Image Occlusion Enhanced -->
 <g>
  <title>Labels</title>
 </g>
 <g>
  <title>Masks</title>
  <rect id="8ce85425b63a4d029d4c45974091e7fe-ao-1" height="30" width="136" y="245" x="169" stroke="#2D2D2D" fill="#FFEBA2"/>
  <rect id="8ce85425b63a4d029d4c45974091e7fe-ao-2" height="30" width="98" y="290" x="117" stroke="#2D2D2D" fill="#FFEBA2"/>
  <rect id="8ce85425b63a4d029d4c45974091e7fe-ao-3" height="24" width="159" y="248" x="390" stroke="#2D2D2D" fill="#FFEBA2"/>
  <rect id="8ce85425b63a4d029d4c45974091e7fe-ao-4" height="25" width="131" y="293" x="480" stroke="#2D2D2D" fill="#FFEBA2"/>
  
  <rect id="8ce85425b63a4d029d4c45974091e7fe-ao-6" height="28" width="147" y="472" x="393" stroke="#2D2D2D" fill="#FFEBA2"/>
  <rect id="8ce85425b63a4d029d4c45974091e7fe-ao-7" height="28" width="192" y="469" x="835" stroke="#2D2D2D" fill="#FFEBA2"/>
  <rect id="8ce85425b63a4d029d4c45974091e7fe-ao-8" height="31" width="185" y="551" x="875" stroke="#2D2D2D" fill="#FFEBA2"/>
  <rect id="8ce85425b63a4d029d4c45974091e7fe-ao-9" height="28" width="238" y="632" x="908" stroke="#2D2D2D" fill="#FFEBA2"/>
  <rect id="8ce85425b63a4d029d4c45974091e7fe-ao-10" height="30" width="130" y="728" x="989" stroke="#2D2D2D" fill="#FFEBA2"/>
  <rect id="8ce85425b63a4d029d4c45974091e7fe-ao-11" height="31" width="158" y="767" x="987" stroke="#2D2D2D" fill="#FFEBA2"/>
  <rect id="8ce85425b63a4d029d4c45974091e7fe-ao-12" height="22" width="108" y="807" x="988" stroke="#2D2D2D" fill="#FFEBA2"/>
  <rect id="8ce85425b63a4d029d4c45974091e7fe-ao-13" height="33" width="136" y="962" x="991" stroke="#2D2D2D" fill="#FFEBA2"/>
  <rect id="8ce85425b63a4d029d4c45974091e7fe-ao-14" height="36" width="137" y="1034" x="962" stroke="#2D2D2D" fill="#FFEBA2"/>
  <rect id="8ce85425b63a4d029d4c45974091e7fe-ao-15" height="30" width="119" y="1113" x="936" stroke="#2D2D2D" fill="#FFEBA2"/>
  <rect id="8ce85425b63a4d029d4c45974091e7fe-ao-16" height="31" width="119" y="1185" x="896" stroke="#2D2D2D" fill="#FFEBA2"/>
  <rect id="8ce85425b63a4d029d4c45974091e7fe-ao-17" height="32" width="97" y="1262" x="852" stroke="#2D2D2D" fill="#FFEBA2"/>
  <rect id="8ce85425b63a4d029d4c45974091e7fe-ao-18" height="29" width="112" y="1340" x="802" stroke="#2D2D2D" fill="#FFEBA2"/>
  <rect id="8ce85425b63a4d029d4c45974091e7fe-ao-19" height="28" width="102" y="1333" x="532" stroke="#2D2D2D" fill="#FFEBA2"/>
  <rect id="8ce85425b63a4d029d4c45974091e7fe-ao-20" height="24" width="124" y="1392" x="469" stroke="#2D2D2D" fill="#FFEBA2"/>
  <rect id="8ce85425b63a4d029d4c45974091e7fe-ao-21" height="26" width="125" y="1450" x="431" stroke="#2D2D2D" fill="#FFEBA2"/>
  <rect id="8ce85425b63a4d029d4c45974091e7fe-ao-22" height="27" width="218" y="1506" x="387" stroke="#2D2D2D" fill="#FFEBA2"/>
  <rect id="8ce85425b63a4d029d4c45974091e7fe-ao-23" height="24" width="134" y="1454" x="229" stroke="#2D2D2D" fill="#FFEBA2"/>
  <rect id="8ce85425b63a4d029d4c45974091e7fe-ao-24" height="24" width="133" y="1414" x="167" stroke="#2D2D2D" fill="#FFEBA2"/>
  <rect id="8ce85425b63a4d029d4c45974091e7fe-ao-25" height="27" width="132" y="1375" x="116" stroke="#2D2D2D" fill="#FFEBA2"/>
  <rect id="8ce85425b63a4d029d4c45974091e7fe-ao-26" height="22" width="119" y="1335" x="73" stroke="#2D2D2D" fill="#FFEBA2"/>
  <rect id="8ce85425b63a4d029d4c45974091e7fe-ao-27" height="30" width="162" y="787" x="76" stroke="#2D2D2D" fill="#FFEBA2"/>
  <rect id="8ce85425b63a4d029d4c45974091e7fe-ao-28" height="28" width="85" y="689" x="276" stroke="#2D2D2D" fill="#FFEBA2"/>
  <rect id="8ce85425b63a4d029d4c45974091e7fe-ao-29" height="29" width="81" y="741" x="301" stroke="#2D2D2D" fill="#FFEBA2"/>
  <rect id="8ce85425b63a4d029d4c45974091e7fe-ao-30" height="26" width="91" y="791" x="318" stroke="#2D2D2D" fill="#FFEBA2"/>
  <rect id="8ce85425b63a4d029d4c45974091e7fe-ao-31" height="28" width="183" y="837" x="339" stroke="#2D2D2D" fill="#FFEBA2"/>
  <rect id="8ce85425b63a4d029d4c45974091e7fe-ao-32" height="27" width="147" y="882" x="376" stroke="#2D2D2D" fill="#FFEBA2"/>
  <rect id="8ce85425b63a4d029d4c45974091e7fe-ao-33" height="29" width="304" y="925" x="394" stroke="#2D2D2D" fill="#FFEBA2"/>
  <rect id="8ce85425b63a4d029d4c45974091e7fe-ao-34" height="29" width="321" y="970" x="416" stroke="#2D2D2D" fill="#FFEBA2"/>
 </g>
</svg>