<svg xmlns="http://www.w3.org/2000/svg" width="1358" height="1922">
 <!-- Created with Image Occlusion Enhanced -->
 <g>
  <title>Labels</title>
 </g>
 <g>
  <title>Masks</title>
  <rect id="9027e7e637d74d0eba15e47c7a0d08a1-ao-1" height="31" width="292" y="184" x="393" stroke="#2D2D2D" fill="#FFEBA2"/>
  <rect id="9027e7e637d74d0eba15e47c7a0d08a1-ao-2" height="29" width="307" y="255" x="274" stroke="#2D2D2D" fill="#FFEBA2"/>
  <rect id="9027e7e637d74d0eba15e47c7a0d08a1-ao-3" height="26" width="208" y="324" x="218" stroke="#2D2D2D" fill="#FFEBA2"/>
  <rect id="9027e7e637d74d0eba15e47c7a0d08a1-ao-4" height="54" width="159" y="382" x="154" stroke="#2D2D2D" fill="#FFEBA2"/>
  <rect id="9027e7e637d74d0eba15e47c7a0d08a1-ao-5" height="30" width="170" y="472" x="65" stroke="#2D2D2D" fill="#FF7E7E" class="qshape"/>
  <rect id="9027e7e637d74d0eba15e47c7a0d08a1-ao-6" height="48" width="111" y="560" x="62" stroke="#2D2D2D" fill="#FFEBA2"/>
  <rect id="9027e7e637d74d0eba15e47c7a0d08a1-ao-7" height="41" width="103" y="983" x="64" stroke="#2D2D2D" fill="#FFEBA2"/>
  <rect id="9027e7e637d74d0eba15e47c7a0d08a1-ao-8" height="56" width="140" y="1064" x="65" stroke="#2D2D2D" fill="#FFEBA2"/>
  <rect id="9027e7e637d74d0eba15e47c7a0d08a1-ao-9" height="50" width="184" y="1161" x="55" stroke="#2D2D2D" fill="#FFEBA2"/>
  <rect id="9027e7e637d74d0eba15e47c7a0d08a1-ao-10" height="78" width="257" y="1247" x="46" stroke="#2D2D2D" fill="#FFEBA2"/>
  <rect id="9027e7e637d74d0eba15e47c7a0d08a1-ao-11" height="47" width="252" y="1359" x="135" stroke="#2D2D2D" fill="#FFEBA2"/>
  <rect id="9027e7e637d74d0eba15e47c7a0d08a1-ao-12" height="31" width="245" y="1436" x="196" stroke="#2D2D2D" fill="#FFEBA2"/>
  <rect id="9027e7e637d74d0eba15e47c7a0d08a1-ao-13" height="29" width="214" y="1503" x="269" stroke="#2D2D2D" fill="#FFEBA2"/>
  <rect id="9027e7e637d74d0eba15e47c7a0d08a1-ao-14" height="28" width="464" y="1558" x="79" stroke="#2D2D2D" fill="#FFEBA2"/>
  <rect id="9027e7e637d74d0eba15e47c7a0d08a1-ao-15" height="28" width="281" y="1618" x="333" stroke="#2D2D2D" fill="#FFEBA2"/>
  <rect id="9027e7e637d74d0eba15e47c7a0d08a1-ao-16" height="27" width="159" y="1681" x="495" stroke="#2D2D2D" fill="#FFEBA2"/>
  <rect id="9027e7e637d74d0eba15e47c7a0d08a1-ao-17" height="24" width="96" y="1741" x="613" stroke="#2D2D2D" fill="#FFEBA2"/>
  <rect id="9027e7e637d74d0eba15e47c7a0d08a1-ao-18" height="28" width="561" y="1741" x="748" stroke="#2D2D2D" fill="#FFEBA2"/>
  <rect id="9027e7e637d74d0eba15e47c7a0d08a1-ao-19" height="25" width="181" y="1682" x="804" stroke="#2D2D2D" fill="#FFEBA2"/>
  <rect id="9027e7e637d74d0eba15e47c7a0d08a1-ao-20" height="30" width="451" y="1615" x="850" stroke="#2D2D2D" fill="#FFEBA2"/>
  <rect id="9027e7e637d74d0eba15e47c7a0d08a1-ao-21" height="36" width="153" y="1552" x="896" stroke="#2D2D2D" fill="#FFEBA2"/>
  <rect id="9027e7e637d74d0eba15e47c7a0d08a1-ao-22" height="27" width="266" y="1495" x="962" stroke="#2D2D2D" fill="#FFEBA2"/>
  <rect id="9027e7e637d74d0eba15e47c7a0d08a1-ao-23" height="31" width="164" y="1439" x="1005" stroke="#2D2D2D" fill="#FFEBA2"/>
  <rect id="9027e7e637d74d0eba15e47c7a0d08a1-ao-24" height="84" width="250" y="1334" x="1048" stroke="#2D2D2D" fill="#FFEBA2"/>
  <rect id="9027e7e637d74d0eba15e47c7a0d08a1-ao-25" height="55" width="239" y="1257" x="1096" stroke="#2D2D2D" fill="#FFEBA2"/>
  <rect id="9027e7e637d74d0eba15e47c7a0d08a1-ao-26" height="49" width="144" y="1189" x="1148" stroke="#2D2D2D" fill="#FFEBA2"/>
  <rect id="9027e7e637d74d0eba15e47c7a0d08a1-ao-27" height="52" width="183" y="1063" x="1164" stroke="#2D2D2D" fill="#FFEBA2"/>
  <rect id="9027e7e637d74d0eba15e47c7a0d08a1-ao-28" height="35" width="116" y="513" x="1206" stroke="#2D2D2D" fill="#FFEBA2"/>
  <rect id="9027e7e637d74d0eba15e47c7a0d08a1-ao-29" height="33" width="216" y="458" x="1130" stroke="#2D2D2D" fill="#FFEBA2"/>
  <rect id="9027e7e637d74d0eba15e47c7a0d08a1-ao-30" height="28" width="211" y="402" x="1018" stroke="#2D2D2D" fill="#FFEBA2"/>
  <rect id="9027e7e637d74d0eba15e47c7a0d08a1-ao-31" height="30" width="300" y="344" x="916" stroke="#2D2D2D" fill="#FFEBA2"/>
  <rect id="9027e7e637d74d0eba15e47c7a0d08a1-ao-32" height="30" width="191" y="289" x="801" stroke="#2D2D2D" fill="#FFEBA2"/>
  <rect id="9027e7e637d74d0eba15e47c7a0d08a1-ao-33" height="33" width="149" y="228" x="713" stroke="#2D2D2D" fill="#FFEBA2"/>
 </g>
</svg>