<svg xmlns="http://www.w3.org/2000/svg" width="1238" height="1788">
 <!-- Created with Image Occlusion Enhanced -->
 <g>
  <title>Labels</title>
 </g>
 <g>
  <title>Masks</title>
  <rect id="b5769ddec06441d08e0acb496fb543ad-ao-1" height="54" width="187" y="926" x="55" stroke="#2D2D2D" fill="#FFEBA2"/>
  <rect id="b5769ddec06441d08e0acb496fb543ad-ao-2" height="49" width="211" y="998" x="32" stroke="#2D2D2D" fill="#FFEBA2"/>
  <rect id="b5769ddec06441d08e0acb496fb543ad-ao-3" height="27" width="109" y="1083" x="131" stroke="#2D2D2D" fill="#FFEBA2"/>
  <rect id="b5769ddec06441d08e0acb496fb543ad-ao-4" height="31" width="228" y="1137" x="9" stroke="#2D2D2D" fill="#FFEBA2"/>
  <rect id="b5769ddec06441d08e0acb496fb543ad-ao-5" height="72" width="199" y="1194" x="41" stroke="#2D2D2D" fill="#FFEBA2"/>
  
  <rect id="b5769ddec06441d08e0acb496fb543ad-ao-7" height="52" width="268" y="1432" x="70" stroke="#2D2D2D" fill="#FFEBA2"/>
  <rect id="b5769ddec06441d08e0acb496fb543ad-ao-8" height="26" width="182" y="1506" x="225" stroke="#2D2D2D" fill="#FFEBA2"/>
  <rect id="b5769ddec06441d08e0acb496fb543ad-ao-9" height="30" width="247" y="1556" x="204" stroke="#2D2D2D" fill="#FFEBA2"/>
  <rect id="b5769ddec06441d08e0acb496fb543ad-ao-10" height="28" width="415" y="1557" x="634" stroke="#2D2D2D" fill="#FFEBA2"/>
  <rect id="b5769ddec06441d08e0acb496fb543ad-ao-11" height="30" width="165" y="1504" x="794" stroke="#2D2D2D" fill="#FFEBA2"/>
  <rect id="b5769ddec06441d08e0acb496fb543ad-ao-12" height="49" width="245" y="1427" x="922" stroke="#2D2D2D" fill="#FFEBA2"/>
  <rect id="b5769ddec06441d08e0acb496fb543ad-ao-13" height="33" width="191" y="1369" x="922" stroke="#2D2D2D" fill="#FFEBA2"/>
  <rect id="b5769ddec06441d08e0acb496fb543ad-ao-14" height="53" width="254" y="1276" x="921" stroke="#2D2D2D" fill="#FFEBA2"/>
  <rect id="b5769ddec06441d08e0acb496fb543ad-ao-15" height="30" width="142" y="1203" x="921" stroke="#2D2D2D" fill="#FFEBA2"/>
  <rect id="b5769ddec06441d08e0acb496fb543ad-ao-16" height="28" width="218" y="1136" x="922" stroke="#2D2D2D" fill="#FFEBA2"/>
  <rect id="b5769ddec06441d08e0acb496fb543ad-ao-17" height="31" width="184" y="1078" x="921" stroke="#2D2D2D" fill="#FFEBA2"/>
  <rect id="b5769ddec06441d08e0acb496fb543ad-ao-18" height="47" width="199" y="1008" x="922" stroke="#2D2D2D" fill="#FFEBA2"/>
  <rect id="b5769ddec06441d08e0acb496fb543ad-ao-19" height="28" width="209" y="955" x="920" stroke="#2D2D2D" fill="#FFEBA2"/>
  <rect stroke="#2D2D2D" id="b5769ddec06441d08e0acb496fb543ad-ao-20" height="35" width="101" y="540" x="933" fill="#FFEBA2"/>
  <rect id="b5769ddec06441d08e0acb496fb543ad-ao-21" height="24" width="165" y="586" x="13" stroke="#2D2D2D" fill="#FFEBA2"/>
 </g>
</svg>