<svg xmlns="http://www.w3.org/2000/svg" width="1272" height="1790">
 <!-- Created with Image Occlusion Enhanced -->
 <g>
  <title>Labels</title>
 </g>
 <g>
  <title>Masks</title>
  <rect id="e6e70192b9584335813295932063f688-ao-1" height="30" width="121" y="235" x="475" stroke="#2D2D2D" fill="#FFEBA2"/>
  <rect id="e6e70192b9584335813295932063f688-ao-2" height="21" width="124" y="274" x="440" stroke="#2D2D2D" fill="#FFEBA2"/>
  <rect id="e6e70192b9584335813295932063f688-ao-3" height="20" width="127" y="302" x="399" stroke="#2D2D2D" fill="#FFEBA2"/>
  <rect id="e6e70192b9584335813295932063f688-ao-4" height="22" width="296" y="288" x="76" stroke="#2D2D2D" fill="#FFEBA2"/>
  <rect id="e6e70192b9584335813295932063f688-ao-5" height="24" width="214" y="321" x="144" stroke="#2D2D2D" fill="#FFEBA2"/>
  <rect id="e6e70192b9584335813295932063f688-ao-6" height="47" width="310" y="359" x="40" stroke="#2D2D2D" fill="#FFEBA2"/>
  <rect id="e6e70192b9584335813295932063f688-ao-7" height="42" width="266" y="428" x="76" stroke="#2D2D2D" fill="#FFEBA2"/>
  <rect id="e6e70192b9584335813295932063f688-ao-8" height="24" width="128" y="495" x="176" stroke="#2D2D2D" fill="#FFEBA2"/>
  <rect id="e6e70192b9584335813295932063f688-ao-9" height="25" width="379" y="170" x="787" stroke="#2D2D2D" fill="#FFEBA2"/>
  <rect id="e6e70192b9584335813295932063f688-ao-10" height="21" width="392" y="208" x="817" stroke="#2D2D2D" fill="#FFEBA2"/>
  <rect id="e6e70192b9584335813295932063f688-ao-11" height="21" width="102" y="241" x="846" stroke="#2D2D2D" fill="#FFEBA2"/>
  <rect id="e6e70192b9584335813295932063f688-ao-12" height="21" width="111" y="277" x="876" stroke="#2D2D2D" fill="#FFEBA2"/>
  <rect id="e6e70192b9584335813295932063f688-ao-13" height="23" width="118" y="312" x="902" stroke="#2D2D2D" fill="#FFEBA2"/>
  <rect id="e6e70192b9584335813295932063f688-ao-14" height="26" width="253" y="345" x="930" stroke="#2D2D2D" fill="#FFEBA2"/>
  <rect id="e6e70192b9584335813295932063f688-ao-15" height="26" width="210" y="380" x="962" stroke="#2D2D2D" fill="#FFEBA2"/>
  <rect id="e6e70192b9584335813295932063f688-ao-16" height="26" width="108" y="412" x="1000" stroke="#2D2D2D" fill="#FFEBA2"/>
  <rect id="e6e70192b9584335813295932063f688-ao-17" height="23" width="118" y="449" x="1030" stroke="#2D2D2D" fill="#FFEBA2"/>
  <rect id="e6e70192b9584335813295932063f688-ao-18" height="27" width="116" y="480" x="1061" stroke="#2D2D2D" fill="#FFEBA2"/>
  <rect id="e6e70192b9584335813295932063f688-ao-19" height="26" width="132" y="518" x="1089" stroke="#2D2D2D" fill="#FFEBA2"/>
  <rect id="e6e70192b9584335813295932063f688-ao-20" height="50" width="171" y="928" x="607" stroke="#2D2D2D" fill="#FFEBA2"/>
  <rect id="e6e70192b9584335813295932063f688-ao-21" height="32" width="156" y="882" x="793" stroke="#2D2D2D" fill="#FFEBA2"/>
  <rect id="e6e70192b9584335813295932063f688-ao-22" height="31" width="222" y="932" x="276" stroke="#2D2D2D" fill="#FFEBA2"/>
  <rect id="e6e70192b9584335813295932063f688-ao-23" height="28" width="177" y="983" x="275" stroke="#2D2D2D" fill="#FFEBA2"/>
  <rect id="e6e70192b9584335813295932063f688-ao-24" height="30" width="177" y="1026" x="276" stroke="#2D2D2D" fill="#FFEBA2"/>
  <rect id="e6e70192b9584335813295932063f688-ao-25" height="28" width="142" y="1069" x="374" stroke="#2D2D2D" fill="#FFEBA2"/>
  <rect id="e6e70192b9584335813295932063f688-ao-26" height="31" width="101" y="1060" x="641" stroke="#2D2D2D" fill="#FFEBA2"/>
  <rect id="e6e70192b9584335813295932063f688-ao-27" height="27" width="228" y="950" x="848" stroke="#2D2D2D" fill="#FFEBA2"/>
  <rect id="e6e70192b9584335813295932063f688-ao-28" height="25" width="181" y="994" x="898" stroke="#2D2D2D" fill="#FFEBA2"/>
  <rect id="e6e70192b9584335813295932063f688-ao-29" height="30" width="178" y="1032" x="895" stroke="#2D2D2D" fill="#FFEBA2"/>
  <rect id="e6e70192b9584335813295932063f688-ao-30" height="28" width="216" y="1077" x="849" stroke="#2D2D2D" fill="#FFEBA2"/>
  <rect id="e6e70192b9584335813295932063f688-ao-31" height="75" width="153" y="1281" x="54" stroke="#2D2D2D" fill="#FFEBA2"/>
  <rect id="e6e70192b9584335813295932063f688-ao-32" height="47" width="252" y="1378" x="76" stroke="#2D2D2D" fill="#FFEBA2"/>
  <rect id="e6e70192b9584335813295932063f688-ao-33" height="25" width="195" y="1475" x="214" stroke="#2D2D2D" fill="#FFEBA2"/>
  <rect id="e6e70192b9584335813295932063f688-ao-34" height="26" width="112" y="1548" x="394" stroke="#2D2D2D" fill="#FFEBA2"/>
  <rect id="e6e70192b9584335813295932063f688-ao-35" height="26" width="140" y="1472" x="585" stroke="#2D2D2D" fill="#FFEBA2"/>
  <rect id="e6e70192b9584335813295932063f688-ao-36" height="28" width="244" y="1545" x="553" stroke="#2D2D2D" fill="#FFEBA2"/>
  <rect id="e6e70192b9584335813295932063f688-ao-37" height="25" width="374" y="1618" x="197" stroke="#2D2D2D" fill="#FFEBA2"/>
  <rect id="e6e70192b9584335813295932063f688-ao-38" height="26" width="139" y="1617" x="730" stroke="#2D2D2D" fill="#FFEBA2"/>
  <rect id="e6e70192b9584335813295932063f688-ao-39" height="26" width="300" y="1578" x="897" stroke="#2D2D2D" fill="#FFEBA2"/>
  
  <rect id="e6e70192b9584335813295932063f688-ao-41" height="74" width="151" y="1432" x="1040" stroke="#2D2D2D" fill="#FFEBA2"/>
  <rect id="e6e70192b9584335813295932063f688-ao-42" height="46" width="113" y="1375" x="1108" stroke="#2D2D2D" fill="#FFEBA2"/>
 </g>
</svg>